<svg xmlns="http://www.w3.org/2000/svg" xml:space="preserve" fill-rule="evenodd" stroke-linejoin="round" stroke-miterlimit="2" clip-rule="evenodd" viewBox="0 0 3650 540">
  <g fill-rule="nonzero">
    <g fill="#f24161">
      <path d="M233.163 32.498c7.98 0 14.915 2.565 20.805 7.695 5.89 5.13 8.835 12.255 8.835 21.375 0 12.16-3.325 21.09-9.975 26.79-6.65 5.7-14.725 8.55-24.225 8.55h-13.68c-7.98 0-14.06 1.805-18.24 5.415-4.18 3.61-6.65 9.975-7.41 19.095l-7.98 96.9c-1.52 17.1-7.41 31.635-17.67 43.605-10.26 11.97-21.66 19.285-34.2 21.945 12.16 3.04 22.515 10.735 31.065 23.085 8.55 12.35 12.065 27.265 10.545 44.745l-7.98 96.33c-.38 9.12 1.14 15.485 4.56 19.095 3.42 3.61 9.12 5.415 17.1 5.415h13.68c7.98 0 14.915 2.66 20.805 7.98 5.89 5.32 8.835 12.54 8.835 21.66 0 11.78-3.325 20.52-9.975 26.22-6.65 5.7-14.915 8.55-24.795 8.55h-39.33c-24.32 0-43.51-6.745-57.57-20.235-14.06-13.49-20.14-32.015-18.24-55.575l7.98-99.18.57-9.12c0-11.4-2.375-19.76-7.125-25.08-4.75-5.32-12.825-8.55-24.225-9.69-9.5-.76-16.72-3.895-21.66-9.405-4.94-5.51-7.41-12.825-7.41-21.945 0-9.88 2.945-17.955 8.835-24.225 5.89-6.27 14.535-9.785 25.935-10.545 12.92-1.14 22.135-5.035 27.645-11.685 5.51-6.65 8.835-17.385 9.975-32.205l7.41-99.75c1.9-24.32 9.215-43.035 21.945-56.145 12.73-13.11 30.875-19.665 54.435-19.665h50.73ZM362.54 439.639c-25.041 0-49.201-2.469-72.479-7.407-23.278-4.938-41.442-11.286-54.492-19.046l41.266-81.473c13.755 8.465 29.715 14.99 47.879 19.575 18.163 4.585 35.71 6.877 52.64 6.877 23.631 0 35.446-4.585 35.446-13.755 0-3.88-3.086-6.789-9.258-8.729-6.173-1.94-15.96-3.792-29.363-5.555-20.809-3.174-38.444-6.966-52.904-11.375-14.461-4.408-27.158-12.168-38.092-23.278-10.933-11.11-16.4-26.54-16.4-46.292 0-35.622 15.166-62.78 45.498-81.473 30.332-18.693 69.481-28.039 117.448-28.039 21.162 0 41.531 1.851 61.106 5.555 19.574 3.703 36.945 9.082 52.111 16.136l-41.266 81.473c-25.042-14.461-53.787-21.691-86.235-21.691-12.697 0-21.955 1.411-27.775 4.232-5.819 2.822-8.729 6.173-8.729 10.052 0 3.88 2.998 6.79 8.994 8.73 5.996 1.939 16.224 4.144 30.684 6.613 20.457 3.174 37.827 6.965 52.112 11.374 14.284 4.409 26.805 12.168 37.562 23.278 10.757 11.11 16.136 26.364 16.136 45.763 0 23.278-7.142 43.117-21.426 59.518-14.285 16.4-33.683 28.657-58.196 36.769-24.512 8.112-51.935 12.168-82.267 12.168Zm408.425-299.97c19.751 0 38.797 5.29 57.137 15.871 18.341 10.581 33.242 26.012 44.705 46.292 11.463 20.28 17.194 44.175 17.194 71.686 0 31.037-6.966 59.253-20.897 84.647-13.932 25.395-32.713 45.322-56.344 59.783-23.631 14.46-49.201 21.691-76.712 21.691-38.797 0-66.307-11.992-82.531-35.976l-26.982 133.32H506.97l78.3-392.024h112.687l-5.291 26.452c21.868-21.161 47.967-31.742 78.299-31.742Zm-54.492 205.799c15.519 0 28.128-5.996 37.827-17.987 9.699-11.992 14.549-28.04 14.549-48.144 0-13.755-3.791-24.777-11.374-33.065-7.583-8.289-18.076-12.433-31.479-12.433-15.519 0-28.127 5.996-37.827 17.988-9.699 11.991-14.548 28.039-14.548 48.143 0 13.755 3.791 24.777 11.374 33.066 7.583 8.288 18.076 12.432 31.478 12.432Zm332.767-170.882c23.631-23.278 57.49-34.917 101.578-34.917l-21.162 105.809c-8.818-1.411-17.459-2.116-25.924-2.116-20.456 0-36.592 4.497-48.408 13.491-11.815 8.994-19.839 23.542-24.071 43.646l-26.982 133.849H884.707l57.666-289.389h112.687l-5.82 29.627Zm121.16-29.627h119.036l-57.666 289.389h-119.036l57.666-289.389Zm72.48-23.278c-20.457 0-36.857-5.379-49.202-16.136-12.344-10.757-18.516-24.248-18.516-40.472 0-18.693 7.054-34.212 21.162-46.556C1210.432 6.172 1228.772 0 1251.345 0c20.456 0 36.857 5.026 49.201 15.078 12.345 10.052 18.517 23.19 18.517 39.414 0 20.104-6.966 36.328-20.898 48.672-13.931 12.345-32.36 18.517-55.285 18.517Zm279.86 17.988c31.39 0 56.52 8.464 75.389 25.394 18.87 16.929 28.305 41.266 28.305 73.008 0 11.992-1.235 24.16-3.704 36.505l-31.743 159.772h-119.564l29.097-145.488c1.411-8.465 2.116-14.284 2.116-17.458 0-20.81-10.052-31.214-30.155-31.214-28.216 0-46.028 18.34-53.434 55.021l-28.04 139.139h-119.565l57.667-289.389h112.687l-5.82 29.098c12.345-11.639 26.012-20.28 41.002-25.924 14.989-5.643 30.243-8.464 45.762-8.464Zm248.13 180.934c-.706 4.232-1.059 7.054-1.059 8.465 0 13.402 7.407 20.104 22.22 20.104 7.76 0 16.577-2.293 26.453-6.878l13.755 80.415c-20.456 11.287-46.556 16.93-78.299 16.93-32.801 0-58.636-7.848-77.505-23.543-18.87-15.695-28.305-37.827-28.305-66.395 0-9.171 1.059-18.693 3.175-28.569l48.143-241.246h119.565l-16.401 80.945h59.254l-17.459 87.292h-59.253l-14.284 72.48Z"/>
      <path d="M2039.06 251.378c9.5.76 16.72 3.895 21.66 9.405 4.94 5.51 7.41 12.825 7.41 21.945 0 9.88-2.945 17.86-8.835 23.94-5.89 6.08-14.535 9.69-25.935 10.83-12.92 1.14-22.135 5.035-27.645 11.685-5.51 6.65-8.835 17.385-9.975 32.205l-7.98 99.75c-1.9 24.32-9.12 43.035-21.66 56.145-12.54 13.11-30.59 19.665-54.15 19.665h-50.73c-7.98 0-14.915-2.565-20.805-7.695-5.89-5.13-8.835-12.255-8.835-21.375 0-12.16 3.325-21.09 9.975-26.79 6.65-5.7 14.725-8.55 24.225-8.55h13.68c7.98 0 14.06-1.805 18.24-5.415 4.18-3.61 6.65-9.975 7.41-19.095l7.41-96.9c1.52-17.1 7.41-31.635 17.67-43.605 10.26-11.97 21.85-19.285 34.77-21.945-12.16-3.04-22.515-10.735-31.065-23.085-8.55-12.35-12.065-27.265-10.545-44.745l7.41-96.33c.76-9.12-.665-15.485-4.275-19.095-3.61-3.61-9.405-5.415-17.385-5.415h-13.11c-8.36 0-15.39-2.66-21.09-7.98-5.7-5.32-8.55-12.54-8.55-21.66 0-11.78 3.325-20.52 9.975-26.22 6.65-5.7 14.725-8.55 24.225-8.55h39.9c24.32 0 43.415 6.745 57.285 20.235 13.87 13.49 20.045 32.015 18.525 55.575l-8.55 99.18-.57 9.12c0 11.4 2.375 19.76 7.125 25.08 4.75 5.32 13.015 8.55 24.795 9.69Z"/>
    </g>
    <path d="M2250.55 433.187c-21.515 0-42.059-3.263-61.634-9.787-19.575-6.525-34.829-14.902-45.763-25.13l14.284-20.633c10.229 9.875 23.896 17.723 41.002 23.543 17.106 5.819 35.181 8.729 54.227 8.729 28.569 0 50.7-5.026 66.396-15.078 15.695-10.052 23.542-24.072 23.542-42.059 0-10.229-3.174-18.341-9.523-24.337-6.348-5.995-14.108-10.492-23.278-13.49-9.17-2.998-21.867-6.261-38.091-9.788-19.046-3.879-34.476-7.935-46.292-12.168-11.815-4.232-21.779-10.845-29.891-19.839-8.112-8.994-12.168-21.25-12.168-36.769 0-25.394 10.493-45.674 31.478-60.84 20.986-15.166 48.937-22.749 83.854-22.749 17.635 0 34.741 2.38 51.318 7.142 16.577 4.761 29.803 11.374 39.678 19.839l-12.168 20.633c-10.228-8.112-22.484-14.196-36.768-18.252-14.285-4.056-29.01-6.084-44.176-6.084-26.805 0-48.055 5.29-63.75 15.871s-23.543 24.513-23.543 41.795c0 10.581 3.174 18.957 9.523 25.13 6.349 6.172 14.372 10.845 24.072 14.019 9.699 3.175 22.661 6.525 38.885 10.052 19.045 3.88 34.3 7.848 45.762 11.904 11.463 4.056 21.25 10.493 29.362 19.31 8.113 8.818 12.169 20.809 12.169 35.975 0 25.747-10.758 46.028-32.272 60.841-21.515 14.813-50.26 22.22-86.235 22.22Zm279.34 0c-37.386 0-67.101-10.405-89.144-31.214-22.044-20.809-33.066-48.672-33.066-83.589 0-31.391 6.79-59.607 20.368-84.648 13.579-25.042 32.36-44.793 56.344-59.253 23.983-14.461 51.141-21.691 81.473-21.691 37.386 0 67.101 10.316 89.145 30.949 22.044 20.633 33.065 48.584 33.065 83.854 0 31.39-6.789 59.694-20.368 84.912-13.579 25.218-32.36 44.969-56.344 59.253-23.983 14.285-51.141 21.427-81.473 21.427Zm2.116-23.807c24.689 0 46.821-5.996 66.396-17.988 19.575-11.992 35.005-28.657 46.291-49.995 11.287-21.338 16.93-45.41 16.93-72.215 0-29.274-8.553-52.023-25.659-68.247-17.106-16.224-41.177-24.336-72.215-24.336-24.689 0-46.821 6.084-66.395 18.252-19.575 12.168-35.006 28.921-46.292 50.259-11.286 21.339-16.93 45.234-16.93 71.686 0 29.274 8.553 52.023 25.659 68.248 17.106 16.224 41.178 24.336 72.215 24.336Zm312.144 23.807c-38.091 0-68.335-10.405-90.731-31.214-22.397-20.809-33.595-48.672-33.595-83.589 0-31.391 6.79-59.695 20.369-84.913 13.578-25.218 32.448-44.969 56.608-59.253 24.16-14.284 51.406-21.426 81.738-21.426 24.688 0 45.85 4.32 63.485 12.961 17.635 8.641 31.39 21.603 41.266 38.885l-21.691 13.226c-16.577-27.51-44.793-41.265-84.648-41.265-25.041 0-47.438 6.084-67.189 18.252-19.751 12.168-35.269 28.833-46.556 49.995-11.286 21.162-16.929 45.145-16.929 71.95 0 29.274 8.641 52.023 25.923 68.248 17.282 16.224 41.971 24.336 74.067 24.336 18.34 0 35.534-3.527 51.582-10.581 16.048-7.054 29.362-16.93 39.943-29.627l18.517 14.813c-11.992 15.519-27.952 27.599-47.879 36.24-19.928 8.641-41.354 12.962-64.28 12.962Zm212.67-278.279h26.452l-55.021 276.163h-26.452l55.021-276.163Zm29.626-67.189c-5.643 0-10.404-1.94-14.284-5.82-3.88-3.879-5.819-8.465-5.819-13.755 0-6.349 2.204-11.815 6.613-16.401 4.408-4.585 9.963-6.877 16.665-6.877 5.643 0 10.492 1.94 14.548 5.819 4.056 3.88 6.084 8.465 6.084 13.756 0 6.701-2.292 12.256-6.877 16.665-4.585 4.408-10.228 6.613-16.93 6.613Zm338.594 67.189-55.021 276.163h-25.394l10.581-53.963c-13.403 17.635-30.068 31.39-49.995 41.266-19.928 9.875-42.06 14.813-66.396 14.813-35.975 0-64.808-10.317-86.499-30.949-21.691-20.633-32.537-48.585-32.537-83.854 0-31.391 6.702-59.695 20.104-84.913 13.403-25.218 32.008-44.969 55.815-59.253 23.807-14.284 50.524-21.426 80.15-21.426 28.569 0 52.2 6.172 70.893 18.516 18.693 12.345 31.39 29.803 38.091 52.376l13.756-68.776h26.452ZM3244.106 409.38c24.688 0 46.82-5.996 66.395-17.988 19.575-11.992 35.005-28.657 46.292-49.995 11.286-21.338 16.929-45.41 16.929-72.215 0-29.274-8.553-52.023-25.659-68.247-17.105-16.224-41.177-24.336-72.215-24.336-24.688 0-46.82 6.084-66.395 18.252-19.575 12.168-35.005 28.921-46.292 50.259-11.286 21.339-16.929 45.234-16.929 71.686 0 29.274 8.553 52.023 25.659 68.248 17.105 16.224 41.177 24.336 72.215 24.336ZM3543.55 38.517h26.452l-78.299 392.554h-26.452l78.299-392.554Z"/>
  </g>
</svg>